<svg width="103" height="103" viewBox="0 0 103 103" fill="none" xmlns="http://www.w3.org/2000/svg">
<g clip-path="url(#clip0)">
<path d="M95.6515 35.5881C95.2349 32.457 95.1762 27.0641 98.0844 25.2533C98.1364 25.2201 98.1751 25.1721 98.2206 25.131C100.598 24.3705 102.244 23.3032 100.952 21.8671L65.8784 11.299L9.08605 19.1949C9.08605 19.1949 2.58262 20.1245 3.16358 30.2284C3.47897 35.7276 5.20373 38.4283 6.71209 39.7575L2.05176 41.162C0.758264 42.5981 2.40341 43.6657 4.78137 44.4249C4.82656 44.4673 4.86468 44.515 4.91755 44.5482C7.82391 46.3605 7.76797 51.7528 7.34992 54.8845C-3.09117 57.8493 0.656826 58.8154 0.656826 58.8154L2.94718 59.3696C1.33616 60.8254 -0.263805 63.5861 0.0358996 68.8219C0.617173 78.9239 5.95898 79.6211 5.95898 79.6211L43.1236 91.7009L99.219 78.1136C99.219 78.1136 102.968 77.146 92.5244 74.1809C92.1045 71.0541 92.0461 65.6625 94.9592 63.8455C95.0127 63.8132 95.0517 63.7644 95.0951 63.7238C97.473 62.9633 99.117 61.897 97.825 60.4608L95.3868 59.7246C97.0129 58.7441 99.4554 56.1814 99.8381 49.5245C100.102 44.9456 98.9076 42.264 97.525 40.6852L102.344 39.519C102.345 39.5208 106.094 38.5531 95.6515 35.5881ZM48.731 35.4586L58.1641 33.5199L90.0428 26.9688L94.7923 25.992C93.2747 28.7695 93.3384 32.5707 93.5895 35.0139C93.6445 35.5665 93.7078 36.0713 93.7693 36.4549L88.5708 37.7475L48.3344 47.757L48.731 35.4586ZM8.20999 45.2899L12.9588 46.2668L43.5739 52.5603L46.2485 53.1081L54.2692 54.7566L54.6648 67.0553L13.3105 56.7666L9.2336 55.7535C9.29354 55.3692 9.35686 54.8651 9.41434 54.3109C9.66394 51.8696 9.7288 48.0675 8.20999 45.2899ZM6.36504 29.7421C6.30756 27.0546 6.78647 25.111 7.75444 24.123C8.37045 23.4923 9.09743 23.361 9.59601 23.361C9.85944 23.361 10.0491 23.3976 10.062 23.3976L34.5323 31.3753L46.7409 35.3557L46.3404 47.7401L12.0905 38.1379L10.283 37.6316C10.2166 37.6128 10.1266 37.5999 10.0571 37.5969C9.916 37.5867 6.5298 37.275 6.36504 29.7421ZM43.2121 86.3354L7.15565 76.2266C7.08894 76.2072 6.9998 76.1943 6.93033 76.1909C6.78678 76.1814 3.39904 75.87 3.23521 68.339C3.1768 65.6481 3.65817 63.7063 4.6243 62.7174C5.24184 62.0866 5.96913 61.9554 6.46679 61.9554C6.73084 61.9554 6.91988 61.9907 6.93371 61.9907C6.93371 61.9907 6.93525 61.9907 6.93371 61.9907L43.6102 73.9507L43.2121 86.3354ZM90.4594 73.6073C90.5162 74.1618 90.5795 74.6657 90.641 75.0499L45.2052 86.3529L45.6024 74.0543L55.3162 72.0571L56.7507 72.4042L62.1276 70.6567L86.9127 65.5635L91.664 64.586C90.1449 67.3633 90.2079 71.166 90.4594 73.6073ZM92.9621 56.893C92.8794 56.8948 92.7967 56.9059 92.719 56.9305L89.2922 57.8898L56.6634 67.039L56.2645 54.6546L66.9696 51.1629L92.8908 42.7094C92.8942 42.7078 94.2544 42.4057 95.2528 43.421C96.2192 44.4089 96.6987 46.3526 96.6422 49.0401C96.4731 56.5705 93.0854 56.8834 92.9621 56.893Z" fill="#FF5151"/>
</g>
<defs>
<clipPath id="clip0">
<rect width="103" height="103" fill="white"/>
</clipPath>
</defs>
</svg>
