<svg width="103" height="103" viewBox="0 0 103 103" fill="none" xmlns="http://www.w3.org/2000/svg">
<path d="M55.288 43.0328H25.48C24.6465 43.0328 23.9712 43.7083 23.9712 44.5416C23.9712 45.375 24.6467 46.0504 25.48 46.0504H55.288C56.1213 46.0504 56.7968 45.375 56.7968 44.5416C56.7968 43.7083 56.1213 43.0328 55.288 43.0328Z" fill="#FF5151"/>
<path d="M79.1731 40.7034C78.7579 39.9811 77.8355 39.7323 77.1131 40.1475L70.0507 44.2088L70.6995 41.8569C70.921 41.0536 70.4495 40.2228 69.6462 40.0013C68.8423 39.7796 68.0121 40.2513 67.7906 41.0546L66.965 44.0474C66.6678 45.1245 67.0466 46.2625 67.9298 46.9467C68.7687 47.5965 70.0085 47.7142 70.9786 47.1561L78.6173 42.7636C79.3397 42.3481 79.5885 41.4258 79.1731 40.7034Z" fill="#FF5151"/>
<path d="M55.288 54.5354H25.48C24.6467 54.5354 23.9712 55.2109 23.9712 56.0442C23.9712 56.8774 24.6465 57.553 25.48 57.553H55.288C56.1213 57.553 56.7968 56.8776 56.7968 56.0442C56.7968 55.2109 56.1213 54.5354 55.288 54.5354Z" fill="#FF5151"/>
<path d="M79.1731 52.2061C78.7579 51.4837 77.8355 51.2348 77.1131 51.6503L70.0507 55.7115L70.6995 53.3596C70.9212 52.5563 70.4495 51.7255 69.6462 51.504C68.8423 51.2823 68.0121 51.7541 67.7906 52.5574L66.965 55.5502C66.6678 56.6273 67.0466 57.7653 67.93 58.4495C68.7715 59.1013 70.0057 59.2184 70.9788 58.6589L78.6174 54.2663C79.3397 53.8509 79.5885 52.9285 79.1731 52.2061Z" fill="#FF5151"/>
<path d="M55.288 66.0376H25.48C24.6467 66.0376 23.9712 66.7131 23.9712 67.5464C23.9712 68.3796 24.6465 69.0552 25.48 69.0552H55.288C56.1213 69.0552 56.7968 68.3796 56.7968 67.5464C56.7968 66.7131 56.1213 66.0376 55.288 66.0376Z" fill="#FF5151"/>
<path d="M79.1731 63.7084C78.7579 62.9862 77.8355 62.7371 77.1131 63.1525L70.0507 67.2138L70.6995 64.8617C70.9212 64.0584 70.4495 63.2276 69.6462 63.0061C68.8423 62.7844 68.0121 63.2561 67.7906 64.0594L66.965 67.0523C66.6678 68.1293 67.0466 69.2674 67.93 69.9517C68.8061 70.6303 70.0184 70.7132 70.9785 70.1612L78.6172 65.7686C79.3397 65.3532 79.5885 64.4308 79.1731 63.7084Z" fill="#FF5151"/>
<path d="M55.288 77.5402H25.48C24.6467 77.5402 23.9712 78.2157 23.9712 79.049C23.9712 79.8822 24.6465 80.5577 25.48 80.5577H55.288C56.1213 80.5577 56.7968 79.8822 56.7968 79.049C56.7968 78.2157 56.1213 77.5402 55.288 77.5402Z" fill="#FF5151"/>
<path d="M79.1731 75.2109C78.7579 74.4885 77.8355 74.2396 77.1131 74.6551L70.0507 78.7163L70.6995 76.3642C70.921 75.5609 70.4495 74.7301 69.6462 74.5086C68.8423 74.2869 68.0121 74.7585 67.7906 75.5617L66.965 78.5546C66.6678 79.6317 67.0466 80.7699 67.93 81.4541C68.8059 82.1326 70.018 82.2159 70.9785 81.6635L78.6172 77.2709C79.3397 76.8555 79.5885 75.9333 79.1731 75.2109Z" fill="#FF5151"/>
<path d="M83.0828 0C83.0828 0 41.5299 0 41.51 0C41.1151 0 40.723 0.162949 40.4432 0.441773C40.4432 0.441773 13.8881 26.9969 13.8825 27.0027C13.6075 27.2823 13.4413 27.6768 13.4413 28.0687V83.6489C13.4413 84.4821 14.1168 85.1577 14.9501 85.1577C15.7833 85.1577 16.4589 84.4821 16.4589 83.6489V29.5775H35.5863C38.9163 29.5775 41.7418 27.3763 42.6842 24.3525C42.9065 23.6393 43.019 22.8916 43.019 22.1446V3.01758H83.083C84.9903 3.01758 86.5419 4.57022 86.5419 6.47854V26.9184C86.5419 27.7517 87.2175 28.4272 88.0507 28.4272C88.884 28.4272 89.5595 27.7517 89.5595 26.9184V6.47854C89.5595 2.90633 86.654 0 83.0828 0ZM40.0014 22.1448C40.0014 24.5387 37.9957 26.5599 35.5863 26.5599H18.5927L40.0014 5.15121C40.0014 5.15121 40.0014 22.1442 40.0014 22.1448Z" fill="#FF5151"/>
<path d="M88.0505 31.4449C87.2173 31.4449 86.5417 32.1205 86.5417 32.9537V96.5234C86.5417 98.4308 84.9901 99.9824 83.0828 99.9824H19.918C18.0107 99.9824 16.4591 98.4308 16.4591 96.5234V89.6842C16.4589 88.8509 15.7833 88.1754 14.9501 88.1754C14.1168 88.1754 13.4413 88.8509 13.4413 89.6842V96.5234C13.4413 100.095 16.3466 103 19.9178 103H83.0828C86.654 103 89.5593 100.095 89.5593 96.5234V32.9537C89.5593 32.1205 88.8838 31.4449 88.0505 31.4449Z" fill="#FF5151"/>
</svg>
