<svg width="103" height="103" viewBox="0 0 103 103" fill="none" xmlns="http://www.w3.org/2000/svg">
<path d="M101.31 88.0159L81.2867 67.9925C80.5009 67.2069 79.2275 67.2069 78.4416 67.9925L77.5598 68.8742L72.0041 63.3184C75.2457 58.8796 77.5652 53.7938 78.7473 48.4026C78.9855 47.3172 78.2987 46.2446 77.2134 46.0066C76.1275 45.7694 75.0552 46.4554 74.8174 47.5407C71.2464 63.824 56.5361 75.6424 39.8393 75.6424C20.0941 75.6424 4.02968 59.5783 4.02968 39.8328C4.02968 20.0874 20.0937 4.02344 39.8391 4.02344C57.0184 4.02344 71.8129 16.2519 75.0168 33.0998C75.2244 34.1912 76.2771 34.9079 77.3689 34.7003C78.4605 34.4927 79.1768 33.4396 78.9694 32.3482C75.4049 13.6044 58.948 0 39.8391 0C17.8749 0 0.00604248 17.8689 0.00604248 39.833C0.00604248 61.7972 17.8749 79.6661 39.8391 79.6661C48.2752 79.6661 56.5311 76.9603 63.3146 72.0125L68.8682 77.566L67.9864 78.4478C67.2009 79.2334 67.2009 80.5072 67.9864 81.2929L88.0099 101.316C89.1324 102.439 90.6068 103 92.0814 103C93.5556 103 95.03 102.439 96.1525 101.316L101.31 96.1588C103.555 93.9139 103.555 90.261 101.31 88.0159ZM66.4565 69.4642C67.5113 68.5151 68.5123 67.5123 69.456 66.4612L74.7146 71.7198L71.7134 74.7211L66.4565 69.4642ZM98.4648 93.3138L93.3071 98.4714C92.6308 99.1478 91.5308 99.1474 90.8549 98.4714L72.2541 79.8707L79.864 72.2605L98.4648 90.8611C99.1409 91.5374 99.1409 92.6376 98.4648 93.3138Z" fill="#FF5151"/>
<path d="M28.5512 28.9696H19.9964C18.8855 28.9696 17.9847 29.8703 17.9847 30.9813C17.9847 32.0924 18.8855 32.993 19.9964 32.993H22.262V43.6946C22.262 44.9439 21.2457 45.9602 19.9964 45.9602C18.7471 45.9602 17.7308 44.9439 17.7308 43.6946C17.7308 42.5835 16.8299 41.6829 15.7191 41.6829C14.6082 41.6829 13.7074 42.5835 13.7074 43.6946C13.7074 47.1624 16.5286 49.9838 19.9966 49.9838C23.4646 49.9838 26.2858 47.1626 26.2858 43.6946V32.993H28.5514C29.6623 32.993 30.5631 32.0924 30.5631 30.9813C30.5631 29.8703 29.6623 28.9696 28.5512 28.9696Z" fill="#FF5151"/>
<path d="M40.349 28.9696C34.5552 28.9696 29.8419 33.6831 29.8419 39.4766C29.8419 45.2702 34.5556 49.9838 40.3492 49.9838C46.1427 49.9838 50.8564 45.2702 50.8564 39.4766C50.8564 33.6831 46.1427 28.9696 40.349 28.9696ZM40.349 45.9604C36.7739 45.9604 33.8652 43.0518 33.8652 39.4766C33.8652 35.9016 36.7737 32.993 40.349 32.993C43.9242 32.993 46.8327 35.9016 46.8327 39.4766C46.8327 43.0516 43.924 45.9604 40.349 45.9604Z" fill="#FF5151"/>
<path d="M65.9703 35.4071C65.9705 31.8574 63.0825 28.9694 59.5328 28.9694H55.4037C54.2929 28.9694 53.392 29.8701 53.392 30.9811V39.8329V48.6847C53.392 49.7957 54.2929 50.6964 55.4037 50.6964H59.5326C63.0823 50.6964 65.9703 47.8086 65.9703 44.2587C65.9703 42.5453 65.2962 40.9876 64.201 39.8327C65.2962 38.6784 65.9703 37.1207 65.9703 35.4071ZM59.5328 46.6731H57.4157V41.8448H59.5326C60.8638 41.8448 61.9467 42.9277 61.9467 44.2589C61.9469 45.5902 60.864 46.6731 59.5328 46.6731ZM59.5326 37.8214H57.4157V32.9931H59.5326C60.8638 32.9931 61.9467 34.076 61.9467 35.4071C61.9467 36.7383 60.8638 37.8214 59.5326 37.8214Z" fill="#FF5151"/>
<path d="M77.6605 37.8212C76.5496 37.8212 75.6488 38.722 75.6488 39.8331L75.6484 39.9761C75.6442 41.0872 76.5412 41.9915 77.6523 41.9957C77.6551 41.9957 77.6575 41.9957 77.6603 41.9957C78.7676 41.9957 79.6676 41.1001 79.6718 39.9918L79.6722 39.8329C79.6722 38.7218 78.7714 37.8212 77.6605 37.8212Z" fill="#FF5151"/>
<path d="M60.8753 18.7963C49.2756 7.19696 30.4016 7.19696 18.8018 18.7963C18.0163 19.5819 18.0163 20.8557 18.8018 21.6413C19.5874 22.4271 20.8608 22.4271 21.647 21.6413C31.6778 11.6107 47.9991 11.6107 58.0303 21.6413C58.4232 22.0342 58.938 22.2305 59.4528 22.2305C59.9678 22.2305 60.4824 22.034 60.8753 21.6413C61.6609 20.8559 61.6609 19.5819 60.8753 18.7963Z" fill="#FF5151"/>
<path d="M21.6881 58.0645L21.6482 58.0245C20.862 57.2389 19.5886 57.2389 18.8029 58.0245C18.0173 58.8101 18.0173 60.0839 18.8029 60.8697C18.8047 60.8713 18.8197 60.8864 18.8214 60.888L18.8306 60.897C19.2241 61.2927 19.7413 61.4909 20.2589 61.4909C20.7711 61.4909 21.2837 61.2965 21.6756 60.9075C22.4638 60.1253 22.4698 58.8531 21.6881 58.0645Z" fill="#FF5151"/>
<path d="M60.8761 58.0246C60.0905 57.2392 58.8171 57.239 58.0309 58.0246C49.8436 66.2119 37.1151 67.9202 27.0782 62.1798C26.1136 61.6282 24.8849 61.9627 24.333 62.9273C23.7814 63.8918 24.1162 65.1207 25.0806 65.6723C29.6727 68.2986 34.7511 69.5769 39.7991 69.5769C47.5125 69.5769 55.1538 66.5919 60.8763 60.8698C61.6619 60.0844 61.6619 58.8104 60.8761 58.0246Z" fill="#FF5151"/>
</svg>
